<?xml version="1.0" encoding="UTF-8"?>
<svg xmlns="http://www.w3.org/2000/svg" viewBox="0 0 571 571" width="571" height="571">
<g><path d="M0 0 C32.67 0 65.34 0 99 0 C99 2.97 99 5.94 99 9 C97.5437 9.6712 96.0849 10.3368 94.625 11 C94.2189 11.1856 94.2189 11.1856 92.1641 12.125 C90 13 90 13 88 13 C87.6906 13.9487 87.3813 14.8975 87.0625 15.875 C86 19 86 19 85 21 C84.8491 22.8081 84.7783 24.6233 84.75 26.4375 C84.7242 27.4056 84.6984 28.3737 84.6719 29.3711 C85.6707 40.4177 90.4886 50.7016 94.625 60.875 C95.256 62.4387 95.8868 64.0025 96.5173 65.5664 C101.9141 78.9183 107.4103 92.2286 113.4492 105.3047 C116.1187 111.1571 118.4513 117.119 120.75 123.125 C121.5341 125.1702 122.3204 127.2145 123.1094 129.2578 C123.2794 129.702 123.2794 129.702 124.1396 131.9497 C125 134 125 134 126 135 C126.2939 138.7222 126.1481 139.7779 124 143 C123.34 143 122.68 143 122 143 C122 143.66 122 144.32 122 145 C121.34 145 120.68 145 120 145 C120 145.66 120 146.32 120 147 C119.34 147 118.68 147 118 147 C118 147.66 118 148.32 118 149 C117.34 149 116.68 149 116 149 C116 149.66 116 150.32 116 151 C115.34 151 114.68 151 114 151 C114 151.66 114 152.32 114 153 C112.3203 154.5078 112.3203 154.5078 110.125 156.125 C109.4057 156.6638 108.6864 157.2027 107.9453 157.7578 C106 159 106 159 104 159 C93.0909 133.3698 93.0909 133.3698 89.625 124.5625 C87.6763 119.627 85.5743 114.8038 83.3398 109.9922 C81.6776 106.28 80.1533 102.5189 78.625 98.75 C76.1843 92.7429 73.5677 86.8754 70.7705 81.0254 C67.6496 74.4094 64.9427 67.6289 62.2024 60.8486 C59.9899 55.3843 57.6813 49.995 55.1875 44.6523 C52.1872 37.951 49.3746 31.0582 47.0195 24.1055 C46.6831 23.4107 46.3466 22.7159 46 22 C42.875 21.1875 42.875 21.1875 40 21 C37.5156 28.4533 39.9006 34.3154 42.6875 41.25 C43.0272 42.1279 43.3668 43.0057 43.7168 43.9102 C45.4931 48.4456 47.3886 52.9039 49.4258 57.3281 C52.8492 64.7666 55.8438 72.3758 58.8945 79.9727 C61.3946 86.163 64.0034 92.2712 66.7988 98.3335 C69.2436 103.7608 71.4032 109.3089 73.6055 114.8379 C75.8053 120.2913 78.2245 125.5454 80.8975 130.7825 C82.2408 133.4843 83.3385 136.2298 84.375 139.0625 C85.804 142.8975 87.2778 146.6995 88.8711 150.4688 C89.0317 150.8496 89.0317 150.8496 89.8442 152.7771 C90.4789 154.2751 91.119 155.7708 91.7651 157.2639 C93.2533 160.7902 94 163.1142 94 167 C86.7739 174.2873 76.2723 178.8838 67 183 C66.34 183 65.68 183 65 183 C64.6021 181.9974 64.2042 180.9947 63.7942 179.9617 C62.2966 176.1902 60.7954 172.4202 59.2932 168.6506 C58.6474 167.0286 58.0025 165.4062 57.3586 163.7834 C54.1294 155.6463 50.8854 147.5467 47.1956 139.6047 C44.8694 134.5367 42.7289 129.3878 40.5625 124.25 C40.0802 123.1091 39.598 121.9682 39.1011 120.7927 C36.5495 114.7388 34.0352 108.6741 31.625 102.5625 C29.2745 96.6119 26.6902 90.8032 24 85 C22.6573 82.0041 21.3272 79.0028 20 76 C18.4127 78.381 17.4284 80.1991 16.4141 82.8086 C16.1247 83.5506 15.8354 84.2926 15.5374 85.0571 C15.2363 85.8427 14.9352 86.6282 14.625 87.4375 C14.3155 88.2385 14.0061 89.0395 13.6873 89.8647 C11.2659 96.1845 9.0377 102.5453 7 109 C7.3738 109.2958 7.3738 109.2958 9.2656 110.793 C10.2505 111.5832 11.2353 112.3734 12.25 113.1875 C13.2245 113.9648 14.1991 114.7421 15.2031 115.543 C17.8505 117.8687 19.9705 120.1249 22 123 C22 123.66 22 124.32 22 125 C22.66 125 23.32 125 24 125 C28.9374 134.2165 31.9239 143.1462 29 153.5625 C28.67 154.3669 28.34 155.1712 28 156 C26 153 26 153 24.8125 149.375 C21.3339 139.8656 13.4906 132.1362 4.5625 127.625 C3.3869 127.0888 2.2113 126.5525 1 126 C-3.4241 134.3377 -6.7564 143.1187 -10.1162 151.926 C-12.652 158.5676 -15.2784 165.1617 -17.9966 171.7307 C-22.5936 182.8421 -26.9062 193.9877 -30.7578 205.3789 C-32 209 -32 209 -33 211 C-21.5973 216.7013 -2.0195 213.0202 10 211 C11.1782 210.8054 12.3564 210.6107 13.5703 210.4102 C43.8909 204.8765 74.0925 192.4458 99.1035 174.4026 C103.8219 171 103.8219 171 106 171 C106 170.34 106 169.68 106 169 C111.4118 165 111.4118 165 114 165 C114 164.34 114 163.68 114 163 C115.4766 161.7656 115.4766 161.7656 117.625 160.25 C122.1755 156.8119 126.2169 153.0171 130.25 149 C130.8399 148.419 131.4298 147.8379 132.0376 147.2393 C134.9243 144.3338 137.4748 141.4419 139.7969 138.0625 C140.5239 137.0519 141.2509 136.0412 142 135 C142.66 135 143.32 135 144 135 C144.2655 134.4354 144.5311 133.8708 144.8047 133.2891 C146.0829 130.8413 147.5684 128.6556 149.125 126.375 C160.961 107.8533 167.6606 86.4964 162.875 64.5625 C161.3808 59.4047 159.0275 54.8899 156.3047 50.2773 C155 48 155 48 154 45 C156.9719 46.1245 159.3344 47.2229 162 49 C162 49.66 162 50.32 162 51 C162.66 51 163.32 51 164 51 C164 51.66 164 52.32 164 53 C164.66 53 165.32 53 166 53 C166 53.66 166 54.32 166 55 C166.66 55 167.32 55 168 55 C177.925 67.8174 180.3912 84.2642 178.5742 100.0508 C174.513 120.9096 164.1206 138.64 151 155 C150.4496 155.7812 149.8991 156.5623 149.332 157.3672 C148.8925 157.906 148.4529 158.4448 148 159 C147.34 159 146.68 159 146 159 C146 159.66 146 160.32 146 161 C145.34 161 144.68 161 144 161 C144 161.66 144 162.32 144 163 C143.34 163 142.68 163 142 163 C141.34 164.32 140.68 165.64 140 167 C139.34 167 138.68 167 138 167 C138 167.66 138 168.32 138 169 C137.34 169 136.68 169 136 169 C136 169.66 136 170.32 136 171 C135.34 171 134.68 171 134 171 C134 171.66 134 172.32 134 173 C133.34 173 132.68 173 132 173 C132 173.66 132 174.32 132 175 C129.8828 176.9453 129.8828 176.9453 127.125 179.125 C126.2201 179.8495 125.3152 180.5739 124.3828 181.3203 C122 183 122 183 120 183 C120 183.66 120 184.32 120 185 C118.6458 186.2017 118.6458 186.2017 116.7383 187.5391 C116.0381 188.0331 115.3379 188.5271 114.6165 189.0361 C113.8561 189.5605 113.0958 190.0848 112.3125 190.625 C111.5374 191.1648 110.7622 191.7046 109.9636 192.2607 C103.4503 196.7617 96.8169 200.9711 90 205 C88.9868 205.6316 87.9736 206.2633 86.9297 206.9141 C65.5213 219.8623 40.5216 228.2707 16 233 C15.0834 233.1781 14.1668 233.3561 13.2224 233.5396 C3.9038 235.169 -5.257 235.3993 -14.6875 235.375 C-15.4834 235.3745 -16.2792 235.3739 -17.0992 235.3734 C-28.8383 235.3364 -39.8031 234.8308 -51 231 C-51.6618 230.7751 -52.3235 230.5501 -53.0054 230.3184 C-61.003 227.5356 -69.2776 224.2514 -76 219 C-76 218.34 -76 217.68 -76 217 C-76.5839 216.728 -77.1679 216.456 -77.7695 216.1758 C-89.9566 209.7514 -97.8439 195.6254 -102 183 C-106.9076 166.5982 -103.7564 148.9903 -96 134 C-85.1638 116.6528 -69.5111 105.0822 -49.7812 99.7852 C-35.8294 96.8881 -21.4785 97.2587 -8 102 C-7.8144 101.4019 -7.8144 101.4019 -6.875 98.375 C-5.5058 94.2479 -3.8674 90.2958 -2.125 86.3125 C0.4482 80.41 2.6666 74.4506 4.7812 68.3711 C5.9382 65.171 7.2159 62.0617 8.5625 58.9375 C13.4383 47.4325 18.2118 34.4003 15.25 21.8125 C12.7832 16.2621 10.3539 13.9433 4.75 11.6875 C3.1719 11.1105 1.5901 10.5432 0 10 C0 6.7 0 3.4 0 0 Z M-66 131 C-66 131.66 -66 132.32 -66 133 C-66.66 133 -67.32 133 -68 133 C-76.6325 142.9932 -80.4426 154.0984 -80.3477 167.125 C-79.5038 176.5308 -75.5897 185.4463 -70 193 C-69.34 193 -68.68 193 -68 193 C-68 193.66 -68 194.32 -68 195 C-67.34 195 -66.68 195 -66 195 C-66 195.66 -66 196.32 -66 197 C-65.34 197 -64.68 197 -64 197 C-64 197.66 -64 198.32 -64 199 C-61.8572 200.4658 -59.7329 201.8112 -57.5 203.125 C-56.88 203.4975 -56.2599 203.8701 -55.6211 204.2539 C-54.0846 205.1758 -52.5428 206.0887 -51 207 C-48.2372 203.6945 -46.7565 200.3175 -45.1685 196.3264 C-44.903 195.664 -44.6374 195.0015 -44.3639 194.319 C-43.4894 192.1329 -42.6236 189.9435 -41.7578 187.7539 C-41.1468 186.2211 -40.5353 184.6886 -39.9233 183.1562 C-38.312 179.1175 -36.7082 175.0759 -35.1057 171.0338 C-33.8098 167.7681 -32.5088 164.5045 -31.2075 161.2411 C-25.7363 147.5202 -20.2684 133.8003 -15 120 C-17.4083 117.5917 -23.464 118.7076 -26.6875 118.6875 C-41.7429 118.6875 -53.8881 121.7048 -66 131 Z " fill="#A37510" transform="translate(217,162)"/>
<path d="M0 0 C0.2465 0.6088 0.4929 1.2177 0.7468 1.845 C8.8445 21.8217 8.8445 21.8217 11.75 28.0625 C13.3782 31.5601 14.8256 35.0777 16.1875 38.6875 C24.4441 60.4881 33.9708 81.4799 45 102 C45.33 102.66 45.66 103.32 46 104 C34.78 104 23.56 104 12 104 C9.6163 99.2325 7.3929 94.7354 5.4141 89.8398 C4.9611 88.7235 4.5082 87.6072 4.0415 86.457 C3.5741 85.2956 3.1066 84.1341 2.625 82.9375 C2.1382 81.7361 1.6514 80.5347 1.1499 79.2969 C-0.873 74.2988 -2.8868 69.2972 -4.875 64.2852 C-5.1362 63.6272 -5.3974 62.9692 -5.6665 62.2913 C-6.31 60.6644 -6.9483 59.0354 -7.5859 57.4062 C-8.7795 54.5312 -10.0354 51.7081 -11.332 48.8789 C-14.1206 42.7842 -16.7335 36.6233 -19.3125 30.4375 C-19.7669 29.3592 -20.2213 28.2809 -20.6895 27.1699 C-21.1181 26.1432 -21.5467 25.1164 -21.9883 24.0586 C-22.3754 23.1336 -22.7625 22.2086 -23.1614 21.2556 C-24 19 -24 19 -24 17 C-21.8828 15.0547 -21.8828 15.0547 -19.125 12.875 C-18.2201 12.1505 -17.3152 11.4261 -16.3828 10.6797 C-14 9 -14 9 -12 9 C-12 8.34 -12 7.68 -12 7 C-10.1367 5.2734 -10.1367 5.2734 -7.6875 3.375 C-6.887 2.7434 -6.0865 2.1117 -5.2617 1.4609 C-3 0 -3 0 0 0 Z " fill="#A37510" transform="translate(361,340)"/>
<path d="M0 0 C3.0436 1.5369 3.3263 3.7024 4.4023 6.8672 C5.8304 10.9971 7.373 14.9434 9.2188 18.9062 C12.9542 27.0087 16.0846 35.3521 19.3081 43.6675 C22.2751 51.3098 25.2395 58.8984 28.8066 66.2871 C30.4364 70.0935 31.6555 74.0641 32.9648 77.9922 C20.7548 77.9922 8.5448 77.9922 -4.0352 77.9922 C-4.5302 76.3422 -4.5302 76.3422 -7.0352 67.9922 C-7.6282 66.3265 -8.2429 64.6679 -8.9023 63.0273 C-9.0651 62.6206 -9.0651 62.6206 -9.8887 60.5625 C-10.0572 60.1487 -10.0572 60.1487 -10.9102 58.0547 C-11.2653 57.1743 -11.6204 56.2938 -11.9863 55.3867 C-14.0874 50.2126 -16.3084 45.1185 -18.6719 40.0586 C-20.6722 35.5592 -22.5102 30.9976 -24.3477 26.4297 C-24.5288 25.9824 -24.5288 25.9824 -25.4453 23.7188 C-25.6129 23.2992 -25.6129 23.2992 -26.4609 21.1758 C-26.7643 20.4184 -27.0676 19.661 -27.3801 18.8806 C-28.0352 16.9922 -28.0352 16.9922 -28.0352 14.9922 C-27.3803 14.6403 -26.7255 14.2884 -26.0508 13.9258 C-0.3059 -0.0012 -0.3059 -0.0012 0 0 Z " fill="#A37510" transform="translate(327.03515625,366.0078125)"/>
<path d="M0 0 C5.7221 1.8676 11.3766 3.8529 17 6 C16.4105 10.9952 14.769 15.1942 12.75 19.75 C8.9267 28.6518 6.4361 37.6245 4 47 C-4.91 47 -13.82 47 -23 47 C-21.35 44.03 -19.7 41.06 -18 38 C-11.8184 26.8353 -6.4715 15.5428 -1.7051 3.7014 C-1.185 2.4465 -0.6075 1.215 0 0 Z " fill="#A37510" transform="translate(155,397)"/></g>
</svg>